<mxfile host="app.diagrams.net" agent="Mozilla/5.0 (Windows NT 10.0; Win64; x64) AppleWebKit/537.36 (KHTML, like Gecko) Chrome/128.0.0.0 Safari/537.36 Edg/128.0.0.0" version="24.7.14">
  <diagram name="PÃ¡gina-1" id="EInetG1gxMbPvAJlhOSA">
    <mxGraphModel dx="847" dy="1215" grid="0" gridSize="10" guides="1" tooltips="1" connect="1" arrows="1" fold="1" page="0" pageScale="1" pageWidth="827" pageHeight="1169" math="0" shadow="0">
      <root>
        <mxCell id="0" />
        <mxCell id="1" parent="0" />
        <mxCell id="GIYnXPAFW_XUAnMw_7OB-2" value="Aplicacion" style="verticalAlign=top;align=left;spacingTop=8;spacingLeft=2;spacingRight=12;shape=cube;size=10;direction=south;fontStyle=4;html=1;whiteSpace=wrap;" vertex="1" parent="1">
          <mxGeometry x="-231" y="-257" width="144" height="151" as="geometry" />
        </mxCell>
        <mxCell id="GIYnXPAFW_XUAnMw_7OB-1" value="Interfaz de Usuario" style="shape=module;align=left;spacingLeft=20;align=center;verticalAlign=top;whiteSpace=wrap;html=1;" vertex="1" parent="1">
          <mxGeometry x="-215" y="-209" width="100" height="40" as="geometry" />
        </mxCell>
        <mxCell id="GIYnXPAFW_XUAnMw_7OB-3" value="Gestor de relevamientos" style="shape=module;align=left;spacingLeft=20;align=center;verticalAlign=top;whiteSpace=wrap;html=1;" vertex="1" parent="1">
          <mxGeometry x="-215" y="-162" width="100" height="40" as="geometry" />
        </mxCell>
        <mxCell id="GIYnXPAFW_XUAnMw_7OB-4" value="Usuario" style="shape=umlActor;verticalLabelPosition=bottom;verticalAlign=top;html=1;" vertex="1" parent="1">
          <mxGeometry x="-349" y="-216.5" width="30" height="60" as="geometry" />
        </mxCell>
        <mxCell id="GIYnXPAFW_XUAnMw_7OB-5" style="edgeStyle=none;curved=1;rounded=0;orthogonalLoop=1;jettySize=auto;html=1;entryX=0.466;entryY=0.983;entryDx=0;entryDy=0;entryPerimeter=0;fontSize=12;startSize=8;endSize=8;dashed=1;endArrow=none;endFill=0;" edge="1" parent="1" source="GIYnXPAFW_XUAnMw_7OB-4" target="GIYnXPAFW_XUAnMw_7OB-2">
          <mxGeometry relative="1" as="geometry" />
        </mxCell>
        <mxCell id="GIYnXPAFW_XUAnMw_7OB-6" value="Servidor de BBDD (MySQL)" style="verticalAlign=top;align=left;spacingTop=8;spacingLeft=2;spacingRight=12;shape=cube;size=10;direction=south;fontStyle=4;html=1;whiteSpace=wrap;" vertex="1" parent="1">
          <mxGeometry x="12" y="-262" width="144" height="151" as="geometry" />
        </mxCell>
        <mxCell id="GIYnXPAFW_XUAnMw_7OB-7" value="Base de datos relevamientos" style="shape=module;align=left;spacingLeft=20;align=center;verticalAlign=top;whiteSpace=wrap;html=1;" vertex="1" parent="1">
          <mxGeometry x="29" y="-190" width="100" height="40" as="geometry" />
        </mxCell>
        <mxCell id="GIYnXPAFW_XUAnMw_7OB-8" style="edgeStyle=none;curved=1;rounded=0;orthogonalLoop=1;jettySize=auto;html=1;entryX=0;entryY=0;entryDx=80.5;entryDy=144;entryPerimeter=0;fontSize=12;startSize=8;endSize=8;" edge="1" parent="1" source="GIYnXPAFW_XUAnMw_7OB-2" target="GIYnXPAFW_XUAnMw_7OB-6">
          <mxGeometry relative="1" as="geometry" />
        </mxCell>
      </root>
    </mxGraphModel>
  </diagram>
</mxfile>
